<?xml version="1.0" standalone="no"?><!DOCTYPE svg PUBLIC "-//W3C//DTD SVG 1.1//EN" "http://www.w3.org/Graphics/SVG/1.1/DTD/svg11.dtd"><svg t="1589706018725" class="icon" viewBox="0 0 1024 1024" version="1.1" xmlns="http://www.w3.org/2000/svg" p-id="2258" xmlns:xlink="http://www.w3.org/1999/xlink" width="200" height="200"><defs><style type="text/css"></style></defs><path d="M405.1 514.1c-0.7 0-1.5-0.1-2.2-0.2-8.2-1.2-13.8-8.9-12.6-17l42.4-284.1c1.2-8.2 8.9-13.8 17-12.6 8.2 1.2 13.8 8.9 12.6 17L420 501.3c-1.2 7.5-7.6 12.8-14.9 12.8zM619.5 514.1c-7.3 0-13.7-5.3-14.8-12.8l-42.4-284.1c-1.2-8.2 4.4-15.8 12.6-17 8.2-1.2 15.8 4.4 17 12.6l42.4 284.1c1.2 8.2-4.4 15.8-12.6 17-0.7 0.2-1.4 0.2-2.2 0.2z" fill="#ff5777" p-id="2259"></path><path d="M769 564.9c-16.6 0-30 13.4-30 30v220.4c0 22.1-17.9 40-40 40H325c-22.1 0-40-17.9-40-40V594.9c0-16.6-13.4-30-30-30s-30 13.4-30 30v220.4c0 55.1 44.9 100 100 100h374c55.1 0 100-44.9 100-100V594.9c0-16.6-13.4-30-30-30z" fill="#ff5777" p-id="2260"></path><path d="M908.2 435.4c-15.8-4.9-32.6 3.9-37.6 19.7-5 15.8 3.9 32.6 19.7 37.6 6.3 2 9.9 8.8 7.9 15.1-1.3 4.1-4.3 6.2-5.9 7.1-1.7 0.9-5 2.1-9.2 0.8-3.8-1.2-6.8-4.2-8-8.1-0.8-2.6-1.9-4.9-3.2-7.1l-135.5-313.8c0-0.1-0.1-0.2-0.1-0.3-1.4-4.1-0.3-7.5 0.5-9.2s2.8-4.7 6.9-6.2c4.1-1.4 7.5-0.3 9.2 0.5 1.7 0.8 4.7 2.8 6.2 6.9 1.3 3.8 0.7 8-1.7 11.2-9.9 13.3-7.1 32.1 6.2 42 5.4 4 11.6 5.9 17.8 5.9 9.2 0 18.2-4.2 24.1-12.1 14.3-19.2 18.1-44.2 10.1-66.8-6.4-18.2-19.4-32.8-36.8-41.1-17.3-8.3-36.9-9.4-55.1-3-18.2 6.4-32.8 19.4-41.1 36.8-3.7 7.8-6 16-6.8 24.3H347c-0.8-8.3-3.1-16.6-6.8-24.3-8.3-17.3-22.9-30.4-41.1-36.8-18.2-6.4-37.7-5.3-55.1 3-17.3 8.3-30.4 22.9-36.8 41.1-7.9 22.6-4.1 47.6 10.1 66.8 5.9 7.9 14.9 12.1 24.1 12.1 6.2 0 12.5-1.9 17.8-5.9 13.3-9.9 16.1-28.7 6.2-42-2.4-3.2-3-7.4-1.7-11.2 1.4-4.1 4.5-6.1 6.2-6.9 1.7-0.8 5.1-1.9 9.2-0.5s6.1 4.5 6.9 6.2c0.8 1.7 1.9 5.1 0.5 9.2 0 0.1-0.1 0.2-0.1 0.3L151 500.5c-1.3 2.2-2.4 4.6-3.2 7.1-1.2 3.9-4.1 6.9-8 8.1-4.1 1.3-7.5 0-9.2-0.8-1.7-0.9-4.6-2.9-5.9-7.1-2-6.3 1.6-13.1 7.9-15.1 15.8-5 24.6-21.8 19.7-37.6-5-15.8-21.8-24.6-37.6-19.7-37.9 11.9-59.1 52.4-47.2 90.3 5.8 18.4 18.3 33.4 35.4 42.3 10.5 5.5 21.8 8.2 33.3 8.2 7.2 0 14.5-1.1 21.6-3.3 20.7-6.5 37.2-21.8 45.2-41.7l9.9-22.9C236.5 538.2 273 557.5 314 557.5c39.6 0 75-18 98.6-46.1 23.6 28.2 59 46.1 98.6 46.1 39.6 0 75-18 98.6-46.1 23.6 28.2 59 46.1 98.6 46.1 41.1 0 77.8-19.4 101.3-49.5l10 23.2a72.23 72.23 0 0 0 45.2 41.7c7.1 2.2 14.4 3.3 21.6 3.3 11.5 0 22.9-2.8 33.3-8.2 17.1-8.9 29.6-23.9 35.4-42.3 12.1-37.9-9.1-78.4-47-90.3z m-199.7 62.2c-37.8 0-68.6-30.8-68.6-68.6 0-16.6-13.4-30-30-30s-30 13.4-30 30c0 37.8-30.8 68.6-68.6 68.6s-68.6-30.8-68.6-68.6c0-16.6-13.4-30-30-30s-30 13.4-30 30c0 37.8-30.8 68.6-68.6 68.6-36.5 0-66.5-28.7-68.5-64.7l85.2-197.3h361.4L777 432.1c-1.7 36.4-31.8 65.5-68.5 65.5z" fill="#ff5777" p-id="2261"></path><path d="M588.1 698.9c8.3 0 15-6.7 15-15s-6.7-15-15-15h-45.4l54.9-45.5c6.4-5.3 7.3-14.7 2-21.1-5.3-6.4-14.7-7.3-21.1-2L511.9 655.5l-66.6-55.2c-6.4-5.3-15.8-4.4-21.1 2-5.3 6.4-4.4 15.8 2 21.1l54.9 45.5h-45c-8.3 0-15 6.7-15 15s6.7 15 15 15H497v23.1h-60.8c-8.3 0-15 6.7-15 15s6.7 15 15 15H497V801.5c0 8.3 6.7 15 15 15s15-6.7 15-15v-49.5h61.1c8.3 0 15-6.7 15-15s-6.7-15-15-15H527v-23.1h61.1z" fill="#ff5777" p-id="2262"></path></svg>